<svg width="27" height="27" viewBox="0 0 27 27" fill="none" xmlns="http://www.w3.org/2000/svg">
<path d="M22.5933 17.1005L23.9456 17.9117C24.029 17.9616 24.0981 18.0323 24.146 18.1169C24.194 18.2015 24.2192 18.2971 24.2192 18.3943C24.2192 18.4915 24.194 18.5871 24.146 18.6717C24.0981 18.7563 24.029 18.827 23.9456 18.8769L14.0793 24.7967C13.9044 24.9018 13.7041 24.9573 13.5 24.9573C13.2958 24.9573 13.0956 24.9018 12.9206 24.7967L3.05433 18.8769C2.97091 18.827 2.90186 18.7563 2.85391 18.6717C2.80596 18.5871 2.78076 18.4915 2.78076 18.3943C2.78076 18.2971 2.80596 18.2015 2.85391 18.1169C2.90186 18.0323 2.97091 17.9616 3.05433 17.9117L4.40658 17.1005L13.5 22.5568L22.5933 17.1005V17.1005ZM22.5933 11.813L23.9456 12.6242C24.029 12.6741 24.0981 12.7448 24.146 12.8294C24.194 12.914 24.2192 13.0096 24.2192 13.1068C24.2192 13.204 24.194 13.2996 24.146 13.3842C24.0981 13.4688 24.029 13.5395 23.9456 13.5894L13.5 19.8568L3.05433 13.5894C2.97091 13.5395 2.90186 13.4688 2.85391 13.3842C2.80596 13.2996 2.78076 13.204 2.78076 13.1068C2.78076 13.0096 2.80596 12.914 2.85391 12.8294C2.90186 12.7448 2.97091 12.6741 3.05433 12.6242L4.40658 11.813L13.5 17.2693L22.5933 11.813ZM14.0782 1.47316L23.9456 7.39291C24.029 7.44285 24.0981 7.51357 24.146 7.59815C24.194 7.68274 24.2192 7.77831 24.2192 7.87554C24.2192 7.97276 24.194 8.06833 24.146 8.15292C24.0981 8.23751 24.029 8.30822 23.9456 8.35816L13.5 14.6255L3.05433 8.35816C2.97091 8.30822 2.90186 8.23751 2.85391 8.15292C2.80596 8.06833 2.78076 7.97276 2.78076 7.87554C2.78076 7.77831 2.80596 7.68274 2.85391 7.59815C2.90186 7.51357 2.97091 7.44285 3.05433 7.39291L12.9206 1.47316C13.0956 1.36804 13.2958 1.3125 13.5 1.3125C13.7041 1.3125 13.9044 1.36804 14.0793 1.47316H14.0782ZM13.5 3.74904L6.62283 7.87554L13.5 12.002L20.3771 7.87554L13.5 3.74904Z" fill="#333030"/>
</svg>
