<svg width="293" height="309" viewBox="0 0 293 309" fill="none" xmlns="http://www.w3.org/2000/svg">
<g clip-path="url(#clip0_1_2)">
<rect width="293" height="309" fill="white"/>
<g clip-path="url(#clip1_1_2)">
<path d="M301 -8H-8V319H301V-8Z" fill="white"/>
<path d="M293.275 0.174988H-0.274994V310.825H293.275V0.174988Z" fill="#008855"/>
<path d="M37.9977 27.7951L26.2642 40.2055L60.3948 76.3309H26.2812L41.8317 92.7871H87.6904V44.244L72.1152 27.7942V63.913L37.9977 27.7951Z" fill="white"/>
<path d="M26.265 269.868L37.9923 282.285L72.1291 246.166V282.267L87.6795 265.811V217.281H41.8085L26.2642 233.763H60.3948L26.265 269.868Z" fill="white"/>
<path d="M266.593 40.2129L254.866 27.7959L220.729 63.9146V27.8139L205.178 44.2701V92.8002H251.049L266.594 76.3177H232.463L266.593 40.2129Z" fill="white"/>
<path d="M254.851 282.278L266.584 269.867L232.452 233.742H266.566L251.015 217.286H205.157V265.829L220.732 282.279V246.16L254.851 282.278Z" fill="white"/>
<path d="M182.251 125.146H162.628C154.286 124.886 149.514 130.133 148.422 137.262L148.308 169.298C148.324 171.849 149.69 174.175 152.647 174.163C155.584 174.148 156.93 171.83 156.952 169.298V139.9C156.958 139.473 158.079 139.12 158.583 139.114C159.092 139.109 160.097 139.461 160.103 139.9V224.449C160.118 227.357 162.605 230.039 165.979 230.029C169.346 230.024 171.741 227.351 171.755 224.449L171.776 175.546C171.963 175.121 172.855 174.889 173.263 174.894C173.663 174.886 174.601 175.113 174.774 175.546L174.8 224.449C174.807 227.357 177.066 230.039 180.441 230.029C183.808 230.024 186.422 227.351 186.43 224.449V139.9C186.436 139.473 187.464 139.12 187.96 139.114C188.469 139.109 189.513 139.461 189.519 139.9V169.298C189.534 171.849 190.705 174.175 193.662 174.163C196.599 174.148 198.139 171.83 198.153 169.298L198.037 137.262C196.946 130.133 192.173 124.886 183.838 125.146" fill="white"/>
<path d="M184.013 110.864C184.013 104.608 179.214 99.5369 173.301 99.5369C167.387 99.5369 162.595 104.607 162.595 110.864C162.595 117.123 167.387 122.202 173.301 122.202C179.214 122.202 184.013 117.123 184.013 110.864Z" fill="white"/>
<path d="M157.361 92.5607C157.361 86.3039 152.562 81.2331 146.65 81.2331C140.735 81.2331 135.944 86.3036 135.944 92.5607C135.944 98.8193 140.735 103.898 146.65 103.898C152.562 103.898 157.361 98.8193 157.361 92.5607" fill="white"/>
<path d="M128.936 125.146H109.313C100.971 124.886 96.1988 130.133 95.1071 137.262L94.9931 169.298C95.0088 171.849 96.3754 174.175 99.3325 174.163C102.27 174.148 103.615 171.83 103.637 169.298V139.9C103.642 139.473 104.764 139.12 105.268 139.114C105.777 139.109 106.782 139.461 106.788 139.9V224.449C106.803 227.357 109.29 230.039 112.664 230.029C116.031 230.024 118.426 227.351 118.441 224.449L118.461 175.546C118.649 175.121 119.54 174.889 119.948 174.894C120.348 174.886 121.287 175.113 121.459 175.546L121.486 224.449C121.491 227.357 123.751 230.039 127.126 230.029C130.493 230.024 133.107 227.351 133.115 224.449V139.9C133.12 139.473 134.149 139.12 134.645 139.114C135.154 139.109 136.198 139.461 136.204 139.9V169.298C136.219 171.849 137.39 174.175 140.347 174.163C143.284 174.148 144.823 171.83 144.838 169.298L144.722 137.262C143.631 130.133 138.858 124.886 130.523 125.146" fill="white"/>
<path d="M130.712 110.864C130.712 104.608 125.913 99.5369 120 99.5369C114.086 99.5369 109.294 104.607 109.294 110.864C109.294 117.123 114.086 122.202 120 122.202C125.913 122.202 130.712 117.123 130.712 110.864Z" fill="white"/>
</g>
</g>
<defs>
<clipPath id="clip0_1_2">
<rect width="293" height="309" fill="white"/>
</clipPath>
<clipPath id="clip1_1_2">
<rect width="309" height="327" fill="white" transform="translate(-8 -8)"/>
</clipPath>
</defs>
</svg>
